<svg width="211" height="40" viewBox="0 0 211 40" fill="none" xmlns="http://www.w3.org/2000/svg">
<g filter="url(#filter0_d_2110_2136)">
<rect x="4.5" y="0.5" width="202" height="31" stroke="black" shape-rendering="crispEdges"/>
<path d="M35 7.35898L31.4779 7.29676L29.692 4.40939L28.8083 7.76347L25 8.41685L28.4599 9.87921L28.771 10.0099L28.0367 13.1835L30.1898 11.2731L33.687 13.1835L32.2744 9.3316L35 7.35898Z" fill="#E43A12"/>
<path d="M8.19731 5.03806L10.6056 13.3426L5 19.6955L13.6783 19.3633L17.8306 28L19.2008 18.8651V18.0346L27.2977 17.4948L21.1939 13.7162L23.1869 4L14.8824 10.1453L8.19731 5.03806Z" fill="#E43A12"/>
<path d="M12.0655 29.625L10.7976 27.4881L11.8809 25.3452L9.52976 26.0536L7.74404 24L8.14284 26.625L8.17857 26.8571L6 27.5952L7.94046 28.1905L8.08927 31L9.87499 28.7321L12.0655 29.625Z" fill="#E43A12"/>
<path d="M25.7911 22.3185L26.387 24.3733L25 25.9452L27.1473 25.863L28.1747 28L28.4213 25.6884V25.4829L30.4247 25.339L28.9144 24.4144L29.4075 22L27.3528 23.5308L25.7911 22.3185Z" fill="#E43A12"/>
<path d="M44.8984 10.2422C44.638 10.1641 44.4818 9.99479 44.4297 9.73438C44.3646 9.55208 44.3841 9.35677 44.4883 9.14844C44.5924 8.92708 44.7552 8.80339 44.9766 8.77734C46.2396 8.58203 47.5026 8.47786 48.7656 8.46484C50.0417 8.4388 51.3177 8.41927 52.5938 8.40625C52.8411 8.40625 53.0299 8.48438 53.1602 8.64062C53.2904 8.79688 53.3555 8.97266 53.3555 9.16797C53.3555 9.36328 53.2904 9.54557 53.1602 9.71484C53.0299 9.87109 52.8411 9.94922 52.5938 9.94922C51.5781 9.97526 50.556 9.98828 49.5273 9.98828C48.4987 9.98828 47.4701 10.0404 46.4414 10.1445C46.4674 10.6654 46.5 11.1862 46.5391 11.707C46.5781 12.2148 46.6172 12.7292 46.6562 13.25C47.6458 13.1979 48.6289 13.1328 49.6055 13.0547C50.5951 12.9766 51.5846 12.9635 52.5742 13.0156C52.8216 13.0286 53.0104 13.1198 53.1406 13.2891C53.2708 13.4583 53.3359 13.6406 53.3359 13.8359C53.3359 14.0312 53.2708 14.207 53.1406 14.3633C53.0104 14.5195 52.8216 14.5911 52.5742 14.5781C51.5977 14.526 50.6276 14.5391 49.6641 14.6172C48.7135 14.6953 47.75 14.7604 46.7734 14.8125C46.8516 15.75 46.9232 16.6875 46.9883 17.625C47.0664 18.5495 47.1185 19.4805 47.1445 20.418C47.6003 20.3138 48.0625 20.2161 48.5312 20.125C49 20.0208 49.4688 19.9427 49.9375 19.8906C50.4062 19.8255 50.875 19.793 51.3438 19.793C51.8125 19.793 52.2812 19.832 52.75 19.9102C52.9583 19.9492 53.1146 20.0729 53.2188 20.2812C53.3229 20.4896 53.349 20.6849 53.2969 20.8672C53.2318 21.0885 53.1081 21.2448 52.9258 21.3359C52.7435 21.4271 52.5417 21.4531 52.3203 21.4141C51.9036 21.3359 51.4805 21.3099 51.0508 21.3359C50.6211 21.362 50.1979 21.4076 49.7812 21.4727C49.2995 21.5508 48.8177 21.6419 48.3359 21.7461C47.8672 21.8503 47.3984 21.9609 46.9297 22.0781C46.7083 22.1302 46.5 22.0911 46.3047 21.9609C46.1224 21.9349 45.9596 21.8633 45.8164 21.7461C45.6732 21.6289 45.6016 21.4531 45.6016 21.2188C45.5755 20.112 45.5234 19.0182 45.4453 17.9375C45.3802 16.8568 45.3021 15.7695 45.2109 14.6758C45.0677 14.5326 44.9831 14.3568 44.957 14.1484C44.944 13.9271 45.0026 13.7383 45.1328 13.582C45.0286 12.4753 44.9505 11.362 44.8984 10.2422ZM55.7773 17.6641C55.4388 17.4167 55.1979 17.1107 55.0547 16.7461C54.9115 16.3685 54.9049 15.9714 55.0352 15.5547C55.1654 15.1771 55.3672 14.8385 55.6406 14.5391C55.9141 14.2396 56.2266 13.9987 56.5781 13.8164C56.9688 13.6081 57.3854 13.4453 57.8281 13.3281C58.2708 13.2109 58.7201 13.1458 59.1758 13.1328C59.6315 13.1198 60.0807 13.1654 60.5234 13.2695C60.9792 13.3607 61.4089 13.5104 61.8125 13.7188C62.0339 13.8359 62.1576 13.9922 62.1836 14.1875C62.2096 14.3828 62.1706 14.5651 62.0664 14.7344C61.9753 14.9036 61.832 15.0273 61.6367 15.1055C61.4414 15.1836 61.2331 15.1641 61.0117 15.0469C60.6992 14.8776 60.3477 14.7669 59.957 14.7148C59.5664 14.6628 59.1693 14.6628 58.7656 14.7148C58.375 14.7539 58.0039 14.8516 57.6523 15.0078C57.3008 15.1641 57.0078 15.3659 56.7734 15.6133C56.7083 15.6784 56.6628 15.724 56.6367 15.75C56.6237 15.776 56.5977 15.8346 56.5586 15.9258L56.5195 16.1406C56.5586 16.2578 56.5911 16.3294 56.6172 16.3555C56.8776 16.5247 57.1445 16.6354 57.418 16.6875C57.7044 16.7266 57.9909 16.7526 58.2773 16.7656C58.681 16.7917 59.0911 16.8177 59.5078 16.8438C59.9375 16.8568 60.3477 16.9089 60.7383 17C61.1419 17.0911 61.513 17.2409 61.8516 17.4492C62.1901 17.6576 62.4766 17.9635 62.7109 18.3672C62.9714 18.8229 63.0885 19.2982 63.0625 19.793C63.0495 20.2747 62.8607 20.7109 62.4961 21.1016C62.1315 21.4922 61.7083 21.7656 61.2266 21.9219C60.7448 22.0651 60.2565 22.1693 59.7617 22.2344C59.319 22.2865 58.8568 22.2995 58.375 22.2734C57.9062 22.2474 57.4505 22.1693 57.0078 22.0391C56.5781 21.9219 56.1745 21.7396 55.7969 21.4922C55.4193 21.2318 55.1068 20.8932 54.8594 20.4766C54.7422 20.2682 54.7227 20.0729 54.8008 19.8906C54.8789 19.6953 54.9961 19.5521 55.1523 19.4609C55.3216 19.3568 55.5039 19.3177 55.6992 19.3438C55.9076 19.3698 56.0768 19.487 56.207 19.6953C56.3893 19.9948 56.6432 20.2227 56.9688 20.3789C57.2943 20.5352 57.6458 20.6458 58.0234 20.7109C58.4141 20.763 58.8047 20.776 59.1953 20.75C59.5859 20.7109 59.9375 20.6589 60.25 20.5938C60.4193 20.5547 60.5885 20.5026 60.7578 20.4375C60.9401 20.3594 61.0898 20.2682 61.207 20.1641C61.3372 20.0599 61.4284 19.9427 61.4805 19.8125C61.5326 19.6693 61.526 19.513 61.4609 19.3438C61.3307 19.0182 61.1094 18.7839 60.7969 18.6406C60.4974 18.4974 60.1784 18.4128 59.8398 18.3867C59.5013 18.3607 59.1562 18.3477 58.8047 18.3477C58.4531 18.3477 58.1016 18.3346 57.75 18.3086C57.3984 18.2695 57.0534 18.2044 56.7148 18.1133C56.3763 18.0221 56.0638 17.8724 55.7773 17.6641ZM70.4844 15.1836C70.7318 15.1836 70.9141 15.2617 71.0312 15.418C71.1615 15.5742 71.2266 15.75 71.2266 15.9453C71.2266 16.1406 71.1615 16.3229 71.0312 16.4922C70.9141 16.6484 70.7318 16.7266 70.4844 16.7266C70.1719 16.7396 69.8594 16.7396 69.5469 16.7266C69.2474 16.7005 68.9479 16.6745 68.6484 16.6484C68.6615 17.6771 68.6419 18.7057 68.5898 19.7344C68.5508 20.763 68.4466 21.7852 68.2773 22.8008C68.2513 23.0221 68.1341 23.1849 67.9258 23.2891C67.7174 23.3932 67.5156 23.4128 67.3203 23.3477C67.099 23.2826 66.9427 23.1589 66.8516 22.9766C66.7734 22.8073 66.7539 22.612 66.793 22.3906C66.9492 21.401 67.0339 20.4115 67.0469 19.4219C67.0729 18.4323 67.0729 17.4362 67.0469 16.4336C66.5521 16.3555 66.0508 16.2773 65.543 16.1992C65.0352 16.1081 64.5339 16.0299 64.0391 15.9648C63.8177 15.9388 63.6615 15.8216 63.5703 15.6133C63.4661 15.3919 63.4401 15.1901 63.4922 15.0078C63.5573 14.7865 63.681 14.6367 63.8633 14.5586C64.0456 14.4674 64.2409 14.4349 64.4492 14.4609C64.8789 14.526 65.3086 14.5977 65.7383 14.6758C66.168 14.7409 66.6042 14.806 67.0469 14.8711C67.0339 14.806 67.0273 14.7083 67.0273 14.5781C67.0273 13.4062 67.0208 12.2474 67.0078 11.1016C67.0078 9.95573 67.0664 8.79688 67.1836 7.625C67.2096 7.41667 67.2878 7.23438 67.418 7.07812C67.5612 6.92188 67.7435 6.84375 67.9648 6.84375C68.1602 6.84375 68.3424 6.92188 68.5117 7.07812C68.694 7.23438 68.7721 7.41667 68.7461 7.625C68.6159 8.875 68.5508 10.1185 68.5508 11.3555C68.5638 12.5794 68.5833 13.8229 68.6094 15.0859C68.9219 15.112 69.2344 15.138 69.5469 15.1641C69.8594 15.1771 70.1719 15.1836 70.4844 15.1836ZM72.5938 14.0508C72.6068 13.8034 72.6979 13.6211 72.8672 13.5039C73.0365 13.3737 73.2188 13.3086 73.4141 13.3086C73.6094 13.3086 73.7786 13.3737 73.9219 13.5039C74.0781 13.6211 74.1497 13.8034 74.1367 14.0508C74.1367 14.1289 74.1302 14.2135 74.1172 14.3047C74.1172 14.3828 74.1172 14.4609 74.1172 14.5391C74.5339 14.3307 74.9701 14.1549 75.4258 14.0117C75.8945 13.8555 76.3568 13.7578 76.8125 13.7188C77.2812 13.6797 77.7305 13.7188 78.1602 13.8359C78.6029 13.9401 79.0065 14.1484 79.3711 14.4609C79.5534 14.6302 79.6315 14.8125 79.6055 15.0078C79.5924 15.2031 79.5143 15.3724 79.3711 15.5156C79.2409 15.6458 79.0716 15.7305 78.8633 15.7695C78.6549 15.7956 78.4531 15.7305 78.2578 15.5742C78.1146 15.457 77.9518 15.3724 77.7695 15.3203C77.6003 15.2682 77.4115 15.2487 77.2031 15.2617C77.0078 15.2617 76.806 15.2812 76.5977 15.3203C76.4023 15.3594 76.2135 15.4049 76.0312 15.457C75.3411 15.6784 74.6966 15.9714 74.0977 16.3359C74.1237 16.974 74.1628 17.612 74.2148 18.25C74.2669 18.7839 74.3125 19.3372 74.3516 19.9102C74.3906 20.4701 74.5013 21.0039 74.6836 21.5117C74.7617 21.7461 74.7422 21.9414 74.625 22.0977C74.5208 22.2669 74.3711 22.3776 74.1758 22.4297C73.9935 22.4818 73.7982 22.4688 73.5898 22.3906C73.3945 22.3125 73.2578 22.1562 73.1797 21.9219C73.0755 21.6224 73.0039 21.3164 72.9648 21.0039C72.9258 20.6914 72.8867 20.3789 72.8477 20.0664C72.8216 19.7669 72.7891 19.4674 72.75 19.168C72.724 18.8555 72.6979 18.5495 72.6719 18.25C72.6068 17.5469 72.5612 16.8503 72.5352 16.1602C72.5221 15.457 72.5417 14.7539 72.5938 14.0508ZM81.0898 14.4219C81.3372 14.0833 81.6302 13.7839 81.9688 13.5234C82.3203 13.263 82.6914 13.0612 83.082 12.918C83.4727 12.7617 83.8763 12.6836 84.293 12.6836C84.7096 12.6706 85.1263 12.7487 85.543 12.918C85.9466 13.0742 86.3112 13.2891 86.6367 13.5625C86.9622 13.8229 87.2161 14.1615 87.3984 14.5781C87.5417 14.8906 87.6263 15.2292 87.6523 15.5938C87.6784 15.9583 87.5807 16.2904 87.3594 16.5898C87.1641 16.8633 86.9232 17.0716 86.6367 17.2148C86.3633 17.3581 86.0638 17.4622 85.7383 17.5273C85.4258 17.5924 85.1003 17.625 84.7617 17.625C84.4362 17.625 84.1237 17.6185 83.8242 17.6055C83.4857 17.5924 83.1471 17.5664 82.8086 17.5273C82.4831 17.4883 82.151 17.4492 81.8125 17.4102C81.9167 17.9961 82.125 18.5169 82.4375 18.9727C82.75 19.4284 83.1732 19.7734 83.707 20.0078C83.8503 20.0599 83.9609 20.099 84.0391 20.125C84.0781 20.138 84.1107 20.151 84.1367 20.1641C84.1758 20.1641 84.2148 20.1641 84.2539 20.1641C84.3581 20.1771 84.4427 20.1901 84.5078 20.2031C84.5859 20.2031 84.6576 20.1966 84.7227 20.1836C84.8138 20.1706 84.8724 20.1641 84.8984 20.1641C84.9375 20.151 84.9766 20.138 85.0156 20.125C85.1589 20.0859 85.2826 20.0404 85.3867 19.9883C85.5039 19.9362 85.6406 19.8516 85.7969 19.7344C85.875 19.6693 85.9792 19.5716 86.1094 19.4414C86.2396 19.3112 86.3503 19.194 86.4414 19.0898C86.5716 18.9076 86.7279 18.7839 86.9102 18.7188C87.1055 18.6536 87.3008 18.6797 87.4961 18.7969C87.6654 18.901 87.7826 19.0638 87.8477 19.2852C87.9258 19.4935 87.8997 19.6888 87.7695 19.8711C87.3919 20.3789 86.9427 20.8151 86.4219 21.1797C85.9141 21.5312 85.3281 21.7201 84.6641 21.7461C84.1302 21.7721 83.6159 21.681 83.1211 21.4727C82.6263 21.2513 82.1901 20.9583 81.8125 20.5938C81.3438 20.138 80.9727 19.6107 80.6992 19.0117C80.4258 18.4128 80.276 17.8008 80.25 17.1758C80.1328 17.0846 80.0417 16.974 79.9766 16.8438C79.9245 16.7005 79.9049 16.5573 79.918 16.4141C79.944 16.2708 79.9961 16.1406 80.0742 16.0234C80.1523 15.8932 80.2695 15.8086 80.4258 15.7695C80.569 15.2878 80.7904 14.8385 81.0898 14.4219ZM85.7773 14.8906C85.6341 14.7083 85.4128 14.5456 85.1133 14.4023C84.8659 14.2982 84.5729 14.2461 84.2344 14.2461C83.9089 14.2461 83.6289 14.3047 83.3945 14.4219C83.0951 14.5651 82.8281 14.7669 82.5938 15.0273C82.3594 15.2747 82.1706 15.5547 82.0273 15.8672C82.3398 15.9062 82.6523 15.9453 82.9648 15.9844C83.2773 16.0234 83.5898 16.0495 83.9023 16.0625C84.0716 16.0625 84.2409 16.0625 84.4102 16.0625C84.5794 16.0625 84.7487 16.056 84.918 16.043C84.9701 16.043 85.0156 16.043 85.0547 16.043C85.1068 16.0299 85.1589 16.0234 85.2109 16.0234C85.3281 15.9974 85.4128 15.9844 85.4648 15.9844C85.5299 15.9714 85.5951 15.9518 85.6602 15.9258C85.7122 15.9128 85.7773 15.8932 85.8555 15.8672C85.9206 15.8411 85.9596 15.8216 85.9727 15.8086C85.9857 15.7956 86.0052 15.7826 86.0312 15.7695L86.0898 15.5352C86.0638 15.4831 86.0443 15.4375 86.0312 15.3984C86.0312 15.3464 86.0182 15.3008 85.9922 15.2617C85.9792 15.2227 85.9466 15.1641 85.8945 15.0859C85.8555 15.0078 85.8164 14.9427 85.7773 14.8906ZM90.4844 6.66797C90.7188 6.66797 90.901 6.74609 91.0312 6.90234C91.1615 7.05859 91.2396 7.24089 91.2656 7.44922C91.3958 8.6862 91.4674 9.92318 91.4805 11.1602C91.4935 12.3971 91.474 13.6341 91.4219 14.8711C91.3828 16.1081 91.3177 17.3451 91.2266 18.582C91.1354 19.819 91.0443 21.0495 90.9531 22.2734C90.9271 22.4948 90.8424 22.6771 90.6992 22.8203C90.569 22.9766 90.3932 23.0547 90.1719 23.0547C89.9766 23.0547 89.7943 22.9766 89.625 22.8203C89.4557 22.6771 89.3776 22.4948 89.3906 22.2734C89.4818 21.0495 89.5729 19.819 89.6641 18.582C89.7682 17.3451 89.8398 16.1081 89.8789 14.8711C89.931 13.6341 89.9505 12.3971 89.9375 11.1602C89.9245 9.92318 89.8529 8.6862 89.7227 7.44922C89.6966 7.24089 89.7682 7.05859 89.9375 6.90234C90.1068 6.74609 90.2891 6.66797 90.4844 6.66797ZM94.8789 21.4727C94.4362 21.2773 94.0846 21.0104 93.8242 20.6719C93.5768 20.3203 93.401 19.9362 93.2969 19.5195C93.2057 19.1029 93.1797 18.6732 93.2188 18.2305C93.2578 17.7747 93.349 17.3385 93.4922 16.9219C93.6094 16.5964 93.7396 16.2578 93.8828 15.9062C94.0391 15.5547 94.2214 15.2292 94.4297 14.9297C94.638 14.6302 94.8854 14.3763 95.1719 14.168C95.4583 13.9466 95.7969 13.8034 96.1875 13.7383C96.5911 13.6732 96.9948 13.6536 97.3984 13.6797C97.8151 13.6927 98.2253 13.7318 98.6289 13.7969C98.8112 13.8229 98.987 13.8685 99.1562 13.9336C99.3255 13.9857 99.4948 14.0443 99.6641 14.1094C99.6771 13.9141 99.7617 13.7513 99.918 13.6211C100.087 13.4909 100.263 13.4258 100.445 13.4258C100.667 13.4258 100.842 13.5039 100.973 13.6602C101.116 13.8034 101.201 13.9792 101.227 14.1875C101.292 14.7865 101.318 15.3854 101.305 15.9844C101.305 16.5833 101.285 17.1823 101.246 17.7812C101.22 18.3802 101.194 18.9792 101.168 19.5781C101.155 20.1771 101.161 20.776 101.188 21.375C101.201 21.6224 101.122 21.8112 100.953 21.9414C100.797 22.0586 100.621 22.1172 100.426 22.1172C100.23 22.1172 100.048 22.0586 99.8789 21.9414C99.7227 21.8112 99.638 21.6224 99.625 21.375C98.8828 21.6875 98.0951 21.8698 97.2617 21.9219C96.4284 21.9609 95.6341 21.8112 94.8789 21.4727ZM95.0156 17.2344C94.9375 17.4688 94.8659 17.7357 94.8008 18.0352C94.7357 18.3346 94.7161 18.6211 94.7422 18.8945C94.7682 19.168 94.8529 19.4219 94.9961 19.6562C95.1393 19.8776 95.3737 20.0339 95.6992 20.125C96.3633 20.3333 97.0273 20.3919 97.6914 20.3008C98.3685 20.2096 99 19.9753 99.5859 19.5977C99.638 18.9596 99.6771 18.3411 99.7031 17.7422C99.7422 17.1432 99.7552 16.5378 99.7422 15.9258C99.5208 15.7826 99.293 15.6589 99.0586 15.5547C98.8372 15.4375 98.5898 15.3594 98.3164 15.3203C98.043 15.2812 97.75 15.2552 97.4375 15.2422C97.138 15.2161 96.8451 15.2161 96.5586 15.2422C96.5326 15.2422 96.4609 15.2617 96.3438 15.3008C96.2396 15.3268 96.181 15.3464 96.168 15.3594C96.0378 15.4245 95.9206 15.5286 95.8164 15.6719C95.6471 15.9062 95.4974 16.1602 95.3672 16.4336C95.237 16.694 95.1198 16.9609 95.0156 17.2344ZM103.922 17.6641C103.583 17.4167 103.342 17.1107 103.199 16.7461C103.056 16.3685 103.049 15.9714 103.18 15.5547C103.31 15.1771 103.512 14.8385 103.785 14.5391C104.059 14.2396 104.371 13.9987 104.723 13.8164C105.113 13.6081 105.53 13.4453 105.973 13.3281C106.415 13.2109 106.865 13.1458 107.32 13.1328C107.776 13.1198 108.225 13.1654 108.668 13.2695C109.124 13.3607 109.553 13.5104 109.957 13.7188C110.178 13.8359 110.302 13.9922 110.328 14.1875C110.354 14.3828 110.315 14.5651 110.211 14.7344C110.12 14.9036 109.977 15.0273 109.781 15.1055C109.586 15.1836 109.378 15.1641 109.156 15.0469C108.844 14.8776 108.492 14.7669 108.102 14.7148C107.711 14.6628 107.314 14.6628 106.91 14.7148C106.52 14.7539 106.148 14.8516 105.797 15.0078C105.445 15.1641 105.152 15.3659 104.918 15.6133C104.853 15.6784 104.807 15.724 104.781 15.75C104.768 15.776 104.742 15.8346 104.703 15.9258L104.664 16.1406C104.703 16.2578 104.736 16.3294 104.762 16.3555C105.022 16.5247 105.289 16.6354 105.562 16.6875C105.849 16.7266 106.135 16.7526 106.422 16.7656C106.826 16.7917 107.236 16.8177 107.652 16.8438C108.082 16.8568 108.492 16.9089 108.883 17C109.286 17.0911 109.658 17.2409 109.996 17.4492C110.335 17.6576 110.621 17.9635 110.855 18.3672C111.116 18.8229 111.233 19.2982 111.207 19.793C111.194 20.2747 111.005 20.7109 110.641 21.1016C110.276 21.4922 109.853 21.7656 109.371 21.9219C108.889 22.0651 108.401 22.1693 107.906 22.2344C107.464 22.2865 107.001 22.2995 106.52 22.2734C106.051 22.2474 105.595 22.1693 105.152 22.0391C104.723 21.9219 104.319 21.7396 103.941 21.4922C103.564 21.2318 103.251 20.8932 103.004 20.4766C102.887 20.2682 102.867 20.0729 102.945 19.8906C103.023 19.6953 103.141 19.5521 103.297 19.4609C103.466 19.3568 103.648 19.3177 103.844 19.3438C104.052 19.3698 104.221 19.487 104.352 19.6953C104.534 19.9948 104.788 20.2227 105.113 20.3789C105.439 20.5352 105.79 20.6458 106.168 20.7109C106.559 20.763 106.949 20.776 107.34 20.75C107.73 20.7109 108.082 20.6589 108.395 20.5938C108.564 20.5547 108.733 20.5026 108.902 20.4375C109.085 20.3594 109.234 20.2682 109.352 20.1641C109.482 20.0599 109.573 19.9427 109.625 19.8125C109.677 19.6693 109.671 19.513 109.605 19.3438C109.475 19.0182 109.254 18.7839 108.941 18.6406C108.642 18.4974 108.323 18.4128 107.984 18.3867C107.646 18.3607 107.301 18.3477 106.949 18.3477C106.598 18.3477 106.246 18.3346 105.895 18.3086C105.543 18.2695 105.198 18.2044 104.859 18.1133C104.521 18.0221 104.208 17.8724 103.922 17.6641ZM120.973 14.8711C121.441 14.5846 121.943 14.3372 122.477 14.1289C123.023 13.9206 123.577 13.8229 124.137 13.8359C124.085 12.7292 124.039 11.6289 124 10.5352C123.974 9.44141 123.954 8.34115 123.941 7.23438C123.941 6.98698 124.02 6.80469 124.176 6.6875C124.332 6.55729 124.508 6.49219 124.703 6.49219C124.898 6.49219 125.074 6.55729 125.23 6.6875C125.4 6.80469 125.484 6.98698 125.484 7.23438C125.497 8.52344 125.53 9.81901 125.582 11.1211C125.634 12.4102 125.686 13.6992 125.738 14.9883C125.79 16.2773 125.829 17.5729 125.855 18.875C125.882 20.1641 125.875 21.4531 125.836 22.7422C125.823 22.9896 125.732 23.1784 125.562 23.3086C125.393 23.4388 125.211 23.5039 125.016 23.5039C124.82 23.5039 124.645 23.4388 124.488 23.3086C124.332 23.1914 124.26 23.0026 124.273 22.7422C124.273 22.651 124.273 22.5599 124.273 22.4688C124.273 22.3776 124.28 22.2865 124.293 22.1953C124.163 22.1823 124.033 22.1693 123.902 22.1562C123.785 22.1562 123.668 22.1562 123.551 22.1562C123.395 22.1562 123.238 22.1562 123.082 22.1562C122.926 22.1562 122.776 22.1497 122.633 22.1367C122.294 22.1107 121.956 22.0781 121.617 22.0391C121.279 22 120.947 21.9219 120.621 21.8047C120.296 21.6745 119.99 21.5182 119.703 21.3359C119.417 21.1406 119.182 20.8867 119 20.5742C118.792 20.2487 118.616 19.8971 118.473 19.5195C118.342 19.1419 118.29 18.7513 118.316 18.3477C118.342 17.944 118.434 17.5729 118.59 17.2344C118.746 16.8958 118.941 16.5833 119.176 16.2969C119.423 16.0104 119.697 15.75 119.996 15.5156C120.309 15.2812 120.634 15.0664 120.973 14.8711ZM124.312 20.6523C124.312 18.9076 124.273 17.1562 124.195 15.3984C123.766 15.3724 123.336 15.4505 122.906 15.6328C122.49 15.8021 122.105 15.9974 121.754 16.2188C121.559 16.3359 121.344 16.4727 121.109 16.6289C120.888 16.7721 120.68 16.9414 120.484 17.1367C120.302 17.319 120.152 17.5208 120.035 17.7422C119.918 17.9635 119.859 18.2044 119.859 18.4648C119.872 18.6992 119.924 18.9531 120.016 19.2266C120.107 19.487 120.23 19.7018 120.387 19.8711C120.543 20.0404 120.719 20.1706 120.914 20.2617C121.109 20.3398 121.318 20.4049 121.539 20.457C121.799 20.5091 122.047 20.5417 122.281 20.5547C122.529 20.5677 122.783 20.5807 123.043 20.5938C123.251 20.5938 123.46 20.6068 123.668 20.6328C123.876 20.6458 124.091 20.6523 124.312 20.6523ZM132.613 12.9961C133.03 12.944 133.466 12.931 133.922 12.957C134.378 12.9701 134.814 13.0482 135.23 13.1914C135.647 13.3216 136.025 13.5234 136.363 13.7969C136.702 14.0703 136.962 14.4284 137.145 14.8711C137.275 15.1836 137.34 15.5026 137.34 15.8281C137.353 16.1406 137.307 16.4466 137.203 16.7461C137.112 17.0326 136.969 17.3125 136.773 17.5859C136.591 17.8464 136.376 18.0872 136.129 18.3086C135.595 18.7904 135.009 19.2005 134.371 19.5391C133.733 19.8776 133.062 20.138 132.359 20.3203C132.06 20.3984 131.747 20.4701 131.422 20.5352C131.109 20.5872 130.79 20.6133 130.465 20.6133C130.139 20.6133 129.82 20.5807 129.508 20.5156C129.195 20.4375 128.902 20.3138 128.629 20.1445C128.434 20.0273 128.316 19.8711 128.277 19.6758C128.199 19.4544 128.115 19.2461 128.023 19.0508C127.932 18.8555 127.841 18.6536 127.75 18.4453C127.672 18.237 127.607 18.0286 127.555 17.8203C127.503 17.612 127.477 17.3971 127.477 17.1758C127.477 16.7331 127.568 16.3164 127.75 15.9258C127.945 15.5221 128.206 15.1706 128.531 14.8711C129.078 14.3503 129.71 13.9336 130.426 13.6211C131.142 13.3086 131.871 13.1003 132.613 12.9961ZM134.82 14.6758C134.469 14.5456 134.091 14.4805 133.688 14.4805C133.258 14.4674 132.828 14.513 132.398 14.6172C131.969 14.7083 131.559 14.8385 131.168 15.0078C130.803 15.151 130.426 15.3529 130.035 15.6133C129.658 15.8607 129.378 16.1667 129.195 16.5312C129.091 16.7266 129.039 16.9284 129.039 17.1367C129.052 17.332 129.085 17.5339 129.137 17.7422C129.202 17.9375 129.28 18.1393 129.371 18.3477C129.475 18.543 129.566 18.7383 129.645 18.9336C129.853 18.9857 129.983 19.0117 130.035 19.0117C130.061 19.0247 130.094 19.0312 130.133 19.0312C130.172 19.0312 130.204 19.0312 130.23 19.0312C130.491 19.0573 130.725 19.0508 130.934 19.0117C131.077 19.0117 131.259 18.9857 131.48 18.9336C131.819 18.8685 132.145 18.7839 132.457 18.6797C132.77 18.5625 133.056 18.4388 133.316 18.3086C133.616 18.1654 133.909 18.0091 134.195 17.8398C134.482 17.6706 134.723 17.4948 134.918 17.3125C135.048 17.1953 135.172 17.0716 135.289 16.9414C135.354 16.8763 135.4 16.8242 135.426 16.7852C135.491 16.694 135.543 16.6289 135.582 16.5898C135.621 16.5378 135.654 16.4792 135.68 16.4141C135.732 16.3229 135.758 16.2513 135.758 16.1992C135.771 16.1732 135.777 16.1406 135.777 16.1016C135.79 16.0625 135.803 16.0299 135.816 16.0039V15.7891C135.803 15.737 135.797 15.6979 135.797 15.6719C135.797 15.6458 135.79 15.6198 135.777 15.5938C135.738 15.5026 135.699 15.4375 135.66 15.3984C135.634 15.3464 135.602 15.2943 135.562 15.2422C135.576 15.2552 135.556 15.2357 135.504 15.1836C135.465 15.1315 135.439 15.099 135.426 15.0859L135.27 14.9297C135.204 14.8906 135.133 14.8451 135.055 14.793C134.977 14.7409 134.898 14.7018 134.82 14.6758ZM145.992 21.7461C145.992 21.9935 145.908 22.1758 145.738 22.293C145.582 22.4232 145.406 22.4883 145.211 22.4883C145.016 22.4883 144.84 22.4232 144.684 22.293C144.527 22.1758 144.449 21.9935 144.449 21.7461C144.449 20.7305 144.566 19.7539 144.801 18.8164C145.035 17.8789 145.328 16.9479 145.68 16.0234C145.589 15.8542 145.562 15.6654 145.602 15.457C145.68 15.1836 145.849 15.0143 146.109 14.9492C146.37 14.3242 146.637 13.7057 146.91 13.0938C147.197 12.4688 147.47 11.8438 147.73 11.2188C147.991 10.5938 148.232 9.96224 148.453 9.32422C148.674 8.6862 148.857 8.03516 149 7.37109C149.039 7.17578 149.117 7.00651 149.234 6.86328C149.365 6.72005 149.54 6.64844 149.762 6.64844C149.97 6.64844 150.159 6.72656 150.328 6.88281C150.497 7.02604 150.569 7.20833 150.543 7.42969C150.504 8.1849 150.517 8.88151 150.582 9.51953C150.647 10.1445 150.745 10.7695 150.875 11.3945C151.005 12.0065 151.148 12.625 151.305 13.25C151.474 13.862 151.63 14.474 151.773 15.0859C151.917 15.6719 152.047 16.2578 152.164 16.8438C152.281 17.4297 152.47 17.9961 152.73 18.543C152.861 18.8164 152.997 19.0833 153.141 19.3438C153.284 19.5911 153.44 19.8451 153.609 20.1055C153.766 20.3398 153.909 20.5872 154.039 20.8477C154.169 21.0951 154.26 21.3685 154.312 21.668C154.339 21.8763 154.306 22.0716 154.215 22.2539C154.137 22.4362 153.987 22.5599 153.766 22.625C153.583 22.6771 153.388 22.651 153.18 22.5469C152.971 22.4427 152.848 22.2865 152.809 22.0781C152.757 21.7786 152.652 21.5117 152.496 21.2773C152.353 21.043 152.203 20.8021 152.047 20.5547C151.865 20.2682 151.695 19.9818 151.539 19.6953C151.396 19.3958 151.266 19.0898 151.148 18.7773C151.018 18.4518 150.908 18.1263 150.816 17.8008C150.725 17.4622 150.641 17.1237 150.562 16.7852C149.977 16.7461 149.397 16.7201 148.824 16.707C148.264 16.681 147.698 16.6354 147.125 16.5703C146.812 17.4036 146.546 18.25 146.324 19.1094C146.116 19.9688 146.005 20.8477 145.992 21.7461ZM147.828 14.832C147.802 14.8711 147.783 14.9167 147.77 14.9688C147.77 15.0078 147.757 15.0469 147.73 15.0859C148.147 15.125 148.557 15.151 148.961 15.1641C149.365 15.1641 149.775 15.1771 150.191 15.2031C150.048 14.5781 149.892 13.9596 149.723 13.3477C149.566 12.7227 149.423 12.0911 149.293 11.4531C149.059 12.026 148.818 12.5924 148.57 13.1523C148.323 13.6992 148.076 14.2591 147.828 14.832ZM157.184 22.2539C157.001 22.319 156.799 22.2995 156.578 22.1953C156.37 22.0911 156.253 21.9349 156.227 21.7266C156.044 20.5807 155.927 19.4479 155.875 18.3281C155.836 17.1953 155.816 16.056 155.816 14.9102C155.816 14.7148 155.868 14.5586 155.973 14.4414C156.077 14.3242 156.201 14.2461 156.344 14.207C156.487 14.168 156.637 14.1615 156.793 14.1875C156.949 14.2135 157.079 14.2786 157.184 14.3828C157.483 14.1354 157.802 13.9206 158.141 13.7383C158.479 13.556 158.818 13.4388 159.156 13.3867C159.508 13.3216 159.853 13.3411 160.191 13.4453C160.53 13.5365 160.849 13.7383 161.148 14.0508C161.396 14.3112 161.611 14.5911 161.793 14.8906C161.975 15.1771 162.138 15.4831 162.281 15.8086C162.477 15.3138 162.75 14.8581 163.102 14.4414C163.453 14.0247 163.902 13.7448 164.449 13.6016C164.853 13.4974 165.172 13.5234 165.406 13.6797C165.641 13.8229 165.862 14.0508 166.07 14.3633C166.292 14.6888 166.493 15.0208 166.676 15.3594C166.871 15.6979 167.053 16.043 167.223 16.3945C167.392 16.7461 167.555 17.0977 167.711 17.4492C167.867 17.8008 168.023 18.1458 168.18 18.4844C168.362 18.862 168.518 19.2396 168.648 19.6172C168.792 19.9818 168.883 20.3724 168.922 20.7891C168.948 21.0104 168.87 21.1992 168.688 21.3555C168.518 21.4987 168.336 21.5703 168.141 21.5703C167.919 21.5703 167.737 21.4987 167.594 21.3555C167.464 21.1992 167.385 21.0104 167.359 20.7891C167.333 20.4766 167.249 20.1771 167.105 19.8906C166.975 19.5911 166.845 19.2982 166.715 19.0117C166.572 18.7122 166.428 18.4062 166.285 18.0938C166.155 17.7812 166.018 17.4753 165.875 17.1758C165.732 16.8763 165.576 16.5768 165.406 16.2773C165.25 15.9779 165.081 15.6849 164.898 15.3984C164.872 15.3594 164.846 15.3203 164.82 15.2812C164.794 15.2422 164.768 15.2031 164.742 15.1641C164.482 15.3073 164.293 15.444 164.176 15.5742C164.059 15.7044 163.948 15.8802 163.844 16.1016C163.753 16.2969 163.674 16.5052 163.609 16.7266C163.557 16.9349 163.512 17.1497 163.473 17.3711C163.395 17.7878 163.336 18.224 163.297 18.6797C163.271 19.0182 163.271 19.3438 163.297 19.6562C163.336 19.9688 163.323 20.2943 163.258 20.6328C163.219 20.8411 163.095 20.9974 162.887 21.1016C162.691 21.2057 162.496 21.2318 162.301 21.1797C162.118 21.1276 161.982 21.0365 161.891 20.9062C161.812 20.763 161.76 20.6003 161.734 20.418C161.682 20.0013 161.624 19.5716 161.559 19.1289C161.493 18.6862 161.409 18.25 161.305 17.8203C161.201 17.3776 161.064 16.9544 160.895 16.5508C160.738 16.1341 160.53 15.75 160.27 15.3984C160.087 15.1641 159.898 15.0078 159.703 14.9297C159.521 14.8516 159.293 14.8841 159.02 15.0273C158.72 15.1836 158.427 15.3724 158.141 15.5938C157.854 15.8151 157.6 16.0625 157.379 16.3359C157.392 17.1693 157.418 18.0026 157.457 18.8359C157.509 19.6562 157.6 20.4766 157.73 21.2969C157.757 21.5182 157.724 21.7201 157.633 21.9023C157.555 22.0716 157.405 22.1888 157.184 22.2539ZM171.52 21.4727C171.077 21.2773 170.725 21.0104 170.465 20.6719C170.217 20.3203 170.042 19.9362 169.938 19.5195C169.846 19.1029 169.82 18.6732 169.859 18.2305C169.898 17.7747 169.99 17.3385 170.133 16.9219C170.25 16.5964 170.38 16.2578 170.523 15.9062C170.68 15.5547 170.862 15.2292 171.07 14.9297C171.279 14.6302 171.526 14.3763 171.812 14.168C172.099 13.9466 172.438 13.8034 172.828 13.7383C173.232 13.6732 173.635 13.6536 174.039 13.6797C174.456 13.6927 174.866 13.7318 175.27 13.7969C175.452 13.8229 175.628 13.8685 175.797 13.9336C175.966 13.9857 176.135 14.0443 176.305 14.1094C176.318 13.9141 176.402 13.7513 176.559 13.6211C176.728 13.4909 176.904 13.4258 177.086 13.4258C177.307 13.4258 177.483 13.5039 177.613 13.6602C177.757 13.8034 177.841 13.9792 177.867 14.1875C177.932 14.7865 177.958 15.3854 177.945 15.9844C177.945 16.5833 177.926 17.1823 177.887 17.7812C177.861 18.3802 177.835 18.9792 177.809 19.5781C177.796 20.1771 177.802 20.776 177.828 21.375C177.841 21.6224 177.763 21.8112 177.594 21.9414C177.438 22.0586 177.262 22.1172 177.066 22.1172C176.871 22.1172 176.689 22.0586 176.52 21.9414C176.363 21.8112 176.279 21.6224 176.266 21.375C175.523 21.6875 174.736 21.8698 173.902 21.9219C173.069 21.9609 172.275 21.8112 171.52 21.4727ZM171.656 17.2344C171.578 17.4688 171.507 17.7357 171.441 18.0352C171.376 18.3346 171.357 18.6211 171.383 18.8945C171.409 19.168 171.493 19.4219 171.637 19.6562C171.78 19.8776 172.014 20.0339 172.34 20.125C173.004 20.3333 173.668 20.3919 174.332 20.3008C175.009 20.2096 175.641 19.9753 176.227 19.5977C176.279 18.9596 176.318 18.3411 176.344 17.7422C176.383 17.1432 176.396 16.5378 176.383 15.9258C176.161 15.7826 175.934 15.6589 175.699 15.5547C175.478 15.4375 175.23 15.3594 174.957 15.3203C174.684 15.2812 174.391 15.2552 174.078 15.2422C173.779 15.2161 173.486 15.2161 173.199 15.2422C173.173 15.2422 173.102 15.2617 172.984 15.3008C172.88 15.3268 172.822 15.3464 172.809 15.3594C172.678 15.4245 172.561 15.5286 172.457 15.6719C172.288 15.9062 172.138 16.1602 172.008 16.4336C171.878 16.694 171.76 16.9609 171.656 17.2344ZM179.957 20.125C179.957 19.5651 179.996 18.9987 180.074 18.4258C180.165 17.7357 180.257 17.0521 180.348 16.375C180.439 15.6849 180.478 14.9883 180.465 14.2852C180.465 14.0378 180.543 13.849 180.699 13.7188C180.855 13.5885 181.031 13.5234 181.227 13.5234C181.422 13.5234 181.604 13.5885 181.773 13.7188C181.943 13.849 182.027 14.0378 182.027 14.2852C182.535 14.2461 183.017 14.2266 183.473 14.2266C183.993 14.2396 184.436 14.3893 184.801 14.6758C185.165 14.9622 185.439 15.3464 185.621 15.8281C185.777 16.2708 185.868 16.7266 185.895 17.1953C185.921 17.6641 185.94 18.1328 185.953 18.6016C185.966 19.2656 185.986 19.9297 186.012 20.5938C186.038 21.2448 186.051 21.9023 186.051 22.5664C186.051 22.8268 185.966 23.0156 185.797 23.1328C185.641 23.263 185.465 23.3281 185.27 23.3281C185.087 23.3281 184.911 23.263 184.742 23.1328C184.586 23.0156 184.508 22.8268 184.508 22.5664C184.508 21.9414 184.495 21.3294 184.469 20.7305C184.456 20.1315 184.436 19.5195 184.41 18.8945C184.384 18.556 184.371 18.2109 184.371 17.8594C184.384 17.4948 184.358 17.1628 184.293 16.8633C184.254 16.681 184.215 16.5247 184.176 16.3945C184.137 16.2513 184.065 16.1146 183.961 15.9844C183.935 15.9323 183.876 15.8867 183.785 15.8477C183.707 15.8086 183.635 15.7891 183.57 15.7891C183.375 15.7891 183.193 15.8021 183.023 15.8281C182.854 15.8542 182.678 15.8932 182.496 15.9453C182.418 15.9714 182.34 15.9974 182.262 16.0234C182.184 16.0495 182.112 16.082 182.047 16.1211C181.917 16.5898 181.819 17.0391 181.754 17.4688C181.702 17.8854 181.65 18.3086 181.598 18.7383C181.559 19.0508 181.533 19.3698 181.52 19.6953C181.52 20.0078 181.507 20.3203 181.48 20.6328C181.467 20.9453 181.428 21.2578 181.363 21.5703C181.311 21.8828 181.214 22.1823 181.07 22.4688C180.953 22.6901 180.797 22.8138 180.602 22.8398C180.406 22.8789 180.224 22.8464 180.055 22.7422C179.898 22.651 179.775 22.5078 179.684 22.3125C179.605 22.1172 179.618 21.9089 179.723 21.6875C179.84 21.4531 179.905 21.1992 179.918 20.9258C179.931 20.6523 179.944 20.3854 179.957 20.125ZM188.238 21.6094C188.056 21.5443 187.9 21.4206 187.77 21.2383C187.652 21.043 187.633 20.8477 187.711 20.6523C187.932 20.0404 188.082 19.4219 188.16 18.7969C188.238 18.1719 188.29 17.5339 188.316 16.8828C188.329 16.6875 188.336 16.4987 188.336 16.3164C188.336 16.1211 188.342 15.9258 188.355 15.7305C188.316 15.5742 188.329 15.4245 188.395 15.2812C188.421 14.9036 188.447 14.526 188.473 14.1484C188.499 13.7578 188.538 13.3737 188.59 12.9961C188.655 12.4232 188.72 11.8568 188.785 11.2969C188.863 10.724 188.915 10.1445 188.941 9.55859C188.967 9.02474 188.993 8.4974 189.02 7.97656C189.059 7.44271 189.195 6.9349 189.43 6.45312C189.547 6.23177 189.703 6.10807 189.898 6.08203C190.094 6.04297 190.276 6.07552 190.445 6.17969C190.615 6.27083 190.738 6.41406 190.816 6.60938C190.908 6.80469 190.895 7.01302 190.777 7.23438C190.673 7.45573 190.602 7.68359 190.562 7.91797C190.523 8.15234 190.497 8.39323 190.484 8.64062C190.484 8.88802 190.484 9.13542 190.484 9.38281C190.484 9.63021 190.478 9.87109 190.465 10.1055C190.4 10.6914 190.335 11.2773 190.27 11.8633C190.204 12.4362 190.139 13.0156 190.074 13.6016C190.621 13.3281 191.227 13.1784 191.891 13.1523C192.411 13.1393 192.939 13.2305 193.473 13.4258C194.02 13.6081 194.462 13.9076 194.801 14.3242C194.996 14.5716 195.152 14.8451 195.27 15.1445C195.387 15.431 195.478 15.737 195.543 16.0625C195.621 16.375 195.673 16.694 195.699 17.0195C195.725 17.332 195.751 17.638 195.777 17.9375C195.816 18.5495 195.829 19.1615 195.816 19.7734C195.816 20.3724 195.803 20.9844 195.777 21.6094C195.777 21.8568 195.693 22.0391 195.523 22.1562C195.354 22.2865 195.172 22.3516 194.977 22.3516C194.781 22.3516 194.605 22.2865 194.449 22.1562C194.293 22.0391 194.221 21.8568 194.234 21.6094C194.247 21.0885 194.26 20.5677 194.273 20.0469C194.286 19.526 194.28 19.0052 194.254 18.4844C194.228 18.224 194.208 17.957 194.195 17.6836C194.182 17.4102 194.15 17.1367 194.098 16.8633C194.072 16.7331 194.046 16.6094 194.02 16.4922C194.007 16.362 193.98 16.2318 193.941 16.1016C193.928 15.9974 193.896 15.8867 193.844 15.7695C193.805 15.6523 193.779 15.5872 193.766 15.5742C193.74 15.5352 193.72 15.5026 193.707 15.4766C193.694 15.4375 193.674 15.3984 193.648 15.3594C193.531 15.2292 193.46 15.1576 193.434 15.1445C193.382 15.1055 193.336 15.0794 193.297 15.0664C193.258 15.0404 193.219 15.0143 193.18 14.9883C193.036 14.9102 192.874 14.8451 192.691 14.793C192.509 14.7409 192.333 14.7148 192.164 14.7148C191.721 14.6888 191.305 14.7669 190.914 14.9492C190.536 15.1315 190.198 15.4115 189.898 15.7891C189.872 16.6875 189.827 17.5794 189.762 18.4648C189.697 19.3372 189.508 20.2031 189.195 21.0625C189.13 21.2578 189.007 21.4141 188.824 21.5312C188.655 21.6484 188.46 21.6745 188.238 21.6094ZM199 21.4727C198.557 21.2773 198.206 21.0104 197.945 20.6719C197.698 20.3203 197.522 19.9362 197.418 19.5195C197.327 19.1029 197.301 18.6732 197.34 18.2305C197.379 17.7747 197.47 17.3385 197.613 16.9219C197.73 16.5964 197.861 16.2578 198.004 15.9062C198.16 15.5547 198.342 15.2292 198.551 14.9297C198.759 14.6302 199.007 14.3763 199.293 14.168C199.579 13.9466 199.918 13.8034 200.309 13.7383C200.712 13.6732 201.116 13.6536 201.52 13.6797C201.936 13.6927 202.346 13.7318 202.75 13.7969C202.932 13.8229 203.108 13.8685 203.277 13.9336C203.447 13.9857 203.616 14.0443 203.785 14.1094C203.798 13.9141 203.883 13.7513 204.039 13.6211C204.208 13.4909 204.384 13.4258 204.566 13.4258C204.788 13.4258 204.964 13.5039 205.094 13.6602C205.237 13.8034 205.322 13.9792 205.348 14.1875C205.413 14.7865 205.439 15.3854 205.426 15.9844C205.426 16.5833 205.406 17.1823 205.367 17.7812C205.341 18.3802 205.315 18.9792 205.289 19.5781C205.276 20.1771 205.283 20.776 205.309 21.375C205.322 21.6224 205.243 21.8112 205.074 21.9414C204.918 22.0586 204.742 22.1172 204.547 22.1172C204.352 22.1172 204.169 22.0586 204 21.9414C203.844 21.8112 203.759 21.6224 203.746 21.375C203.004 21.6875 202.216 21.8698 201.383 21.9219C200.549 21.9609 199.755 21.8112 199 21.4727ZM199.137 17.2344C199.059 17.4688 198.987 17.7357 198.922 18.0352C198.857 18.3346 198.837 18.6211 198.863 18.8945C198.889 19.168 198.974 19.4219 199.117 19.6562C199.26 19.8776 199.495 20.0339 199.82 20.125C200.484 20.3333 201.148 20.3919 201.812 20.3008C202.49 20.2096 203.121 19.9753 203.707 19.5977C203.759 18.9596 203.798 18.3411 203.824 17.7422C203.863 17.1432 203.876 16.5378 203.863 15.9258C203.642 15.7826 203.414 15.6589 203.18 15.5547C202.958 15.4375 202.711 15.3594 202.438 15.3203C202.164 15.2812 201.871 15.2552 201.559 15.2422C201.259 15.2161 200.966 15.2161 200.68 15.2422C200.654 15.2422 200.582 15.2617 200.465 15.3008C200.361 15.3268 200.302 15.3464 200.289 15.3594C200.159 15.4245 200.042 15.5286 199.938 15.6719C199.768 15.9062 199.618 16.1602 199.488 16.4336C199.358 16.694 199.241 16.9609 199.137 17.2344ZM203.492 12C203.219 12.1042 202.932 12.1367 202.633 12.0977C202.346 12.0456 202.086 11.9284 201.852 11.7461C201.669 11.6029 201.493 11.4466 201.324 11.2773C201.155 11.0951 200.953 10.9844 200.719 10.9453C200.497 10.9062 200.283 10.9453 200.074 11.0625C199.879 11.1797 199.71 11.3099 199.566 11.4531C199.384 11.6354 199.189 11.7135 198.98 11.6875C198.785 11.6615 198.616 11.5833 198.473 11.4531C198.342 11.3099 198.258 11.1406 198.219 10.9453C198.193 10.737 198.271 10.5417 198.453 10.3594C198.674 10.138 198.922 9.94922 199.195 9.79297C199.469 9.63672 199.755 9.52604 200.055 9.46094C200.367 9.38281 200.673 9.36979 200.973 9.42188C201.285 9.46094 201.585 9.5651 201.871 9.73438C202.118 9.90365 202.333 10.0859 202.516 10.2812C202.581 10.3464 202.639 10.4049 202.691 10.457C202.743 10.4961 202.802 10.5286 202.867 10.5547C202.945 10.5677 203.023 10.5482 203.102 10.4961C203.18 10.431 203.258 10.3594 203.336 10.2812C203.414 10.1901 203.486 10.099 203.551 10.0078C203.616 9.90365 203.668 9.82552 203.707 9.77344C203.85 9.60417 204.033 9.52604 204.254 9.53906C204.475 9.55208 204.658 9.63021 204.801 9.77344C204.97 9.92969 205.048 10.112 205.035 10.3203C205.022 10.5156 204.944 10.6979 204.801 10.8672C204.618 11.0885 204.43 11.3099 204.234 11.5312C204.039 11.7396 203.792 11.8958 203.492 12Z" fill="#292524"/>
</g>
<defs>
<filter id="filter0_d_2110_2136" x="0" y="0" width="211" height="40" filterUnits="userSpaceOnUse" color-interpolation-filters="sRGB">
<feFlood flood-opacity="0" result="BackgroundImageFix"/>
<feColorMatrix in="SourceAlpha" type="matrix" values="0 0 0 0 0 0 0 0 0 0 0 0 0 0 0 0 0 0 127 0" result="hardAlpha"/>
<feOffset dy="4"/>
<feGaussianBlur stdDeviation="2"/>
<feComposite in2="hardAlpha" operator="out"/>
<feColorMatrix type="matrix" values="0 0 0 0 0 0 0 0 0 0 0 0 0 0 0 0 0 0 0.25 0"/>
<feBlend mode="normal" in2="BackgroundImageFix" result="effect1_dropShadow_2110_2136"/>
<feBlend mode="normal" in="SourceGraphic" in2="effect1_dropShadow_2110_2136" result="shape"/>
</filter>
</defs>
</svg>
